<svg role="img" viewBox="0 0 24 24" xmlns="http://www.w3.org/2000/svg">
  <title>Discord</title>
  <rect width="24" height="24" rx="5" fill="#5865F2"/>
  <path fill="#fff" d="M17.2 7.2A12 12 0 0 0 14.5 6l-.3.6a10.5 10.5 0 0 0-4.4 0L9.5 6a12 12 0 0 0-2.7 1.2C5.1 9.8 4.6 12.3 4.8 14.8a11.5 11.5 0 0 0 3.3 1.7l.7-1.1c-.4-.2-.8-.4-1.2-.7l.3-.2c2.3 1.1 4.9 1.1 7.2 0l.3.2c-.4.3-.8.5-1.2.7l.7 1.1a11.5 11.5 0 0 0 3.3-1.7c.3-2.9-.5-5.4-2-7.6ZM9.5 13.3c-.7 0-1.2-.6-1.2-1.3 0-.7.5-1.3 1.2-1.3s1.2.6 1.2 1.3c0 .7-.5 1.3-1.2 1.3Zm5 0c-.7 0-1.2-.6-1.2-1.3 0-.7.5-1.3 1.2-1.3s1.2.6 1.2 1.3c0 .7-.5 1.3-1.2 1.3Z"/>
</svg>
