<svg role="img" viewBox="0 0 24 24" xmlns="http://www.w3.org/2000/svg">
  <title>GitHub</title>
  <path fill="#181717" d="M12 .6A11.4 11.4 0 0 0 .6 12c0 5 3.25 9.25 7.76 10.76.57.1.78-.25.78-.55v-2.14c-3.16.69-3.82-1.34-3.82-1.34-.52-1.3-1.26-1.65-1.26-1.65-1.03-.7.08-.69.08-.69 1.13.08 1.73 1.16 1.73 1.16 1.01 1.72 2.66 1.22 3.31.93.1-.73.39-1.22.71-1.5-2.52-.29-5.18-1.26-5.18-5.6 0-1.24.44-2.25 1.16-3.04-.12-.29-.5-1.45.11-3 0 0 .95-.3 3.12 1.16A10.8 10.8 0 0 1 12 6.12c.96 0 1.92.13 2.82.38 2.17-1.46 3.12-1.16 3.12-1.16.61 1.55.23 2.71.11 3 .72.79 1.16 1.8 1.16 3.04 0 4.35-2.66 5.3-5.2 5.59.41.35.77 1.04.77 2.1v3.14c0 .3.2.66.78.55A11.4 11.4 0 0 0 23.4 12 11.4 11.4 0 0 0 12 .6Z"/>
</svg>
